<?xml version="1.0" standalone="no"?>
<!DOCTYPE svg PUBLIC "-//W3C//DTD SVG 20010904//EN"
 "http://www.w3.org/TR/2001/REC-SVG-20010904/DTD/svg10.dtd">
<svg version="1.0" xmlns="http://www.w3.org/2000/svg"
 width="819.000000pt" height="460.000000pt" viewBox="0 0 819.000000 460.000000"
 preserveAspectRatio="xMidYMid meet">

<g transform="translate(0.000000,460.000000) scale(0.100000,-0.100000)"
fill="#000000" stroke="none">
<path d="M1520 3909 c-106 -18 -226 -52 -289 -80 -165 -75 -368 -246 -457
-386 -53 -82 -130 -248 -148 -318 -30 -118 -41 -274 -28 -397 16 -150 43 -250
99 -361 65 -130 110 -193 216 -300 143 -145 280 -223 480 -276 139 -36 250
-42 732 -39 453 3 461 3 501 25 55 29 109 93 123 146 9 31 11 181 9 557 l-4
515 -26 95 c-14 52 -47 142 -73 200 -130 291 -394 513 -705 592 -128 33 -328
45 -430 27z m111 -214 c165 -29 262 -76 385 -188 84 -78 160 -197 200 -312 36
-106 45 -276 19 -390 -20 -93 -87 -230 -152 -310 -91 -112 -258 -217 -400
-251 -83 -20 -246 -22 -328 -5 -150 32 -308 129 -407 249 -81 97 -103 134
-132 219 -37 109 -49 196 -43 302 19 344 266 624 605 685 102 19 153 19 253 1z
m829 -1301 c96 -52 146 -144 138 -253 -10 -144 -119 -244 -263 -244 -152 0
-264 110 -265 261 0 77 16 117 71 177 92 99 206 120 319 59z"/>
<path d="M2005 3131 c-105 -5 -135 -10 -158 -25 -43 -29 -78 -98 -84 -163 -4
-50 -1 -66 24 -112 15 -30 39 -63 53 -73 33 -24 114 -38 216 -38 l84 0 0 39 0
39 -121 4 -121 3 -28 32 c-54 60 -48 151 13 197 24 18 45 21 143 24 l114 4 0
39 c0 21 -1 38 -2 37 -2 -1 -61 -4 -133 -7z"/>
<path d="M880 3013 c0 -134 10 -179 47 -223 36 -44 74 -60 138 -60 63 0 86 9
133 53 45 44 62 107 62 239 l0 108 -34 0 -34 0 -4 -122 c-4 -135 -15 -165 -69
-194 -47 -24 -85 -18 -127 20 l-37 34 -3 131 -4 131 -34 0 -34 0 0 -117z"/>
<path d="M1320 2990 l0 -140 38 0 37 0 0 102 0 103 55 3 c104 6 164 -31 177
-112 7 -44 -21 -103 -61 -127 -25 -15 -51 -19 -138 -19 l-108 0 0 -40 0 -39
118 3 c131 3 159 12 210 70 82 93 59 242 -47 313 -31 21 -46 23 -157 23 l-124
0 0 -140z"/>
<path d="M1912 2958 c-7 -7 -12 -19 -12 -28 0 -33 22 -40 127 -40 l103 0 0 40
0 40 -103 0 c-67 0 -107 -4 -115 -12z"/>
<path d="M2269 2265 c-36 -20 -63 -78 -55 -124 8 -50 36 -84 83 -100 134 -48
226 141 107 220 -34 22 -98 24 -135 4z"/>
</g>
</svg>
